<svg width="160" height="160" viewBox="0 0 160 160" fill="none" xmlns="http://www.w3.org/2000/svg">
<path fill-rule="evenodd" clip-rule="evenodd" d="M51.2 0V6.4H57.6V12.8H51.2V32H57.6V25.6H70.4V32H64V64H57.6V70.4H51.2V57.6H57.6V51.2H51.2V57.6H44.8V51.2H38.4V57.6H44.8V64H32V70.4H25.6V76.8H19.2V70.4H12.8V64H25.6V51.2H0V57.6H6.4V76.8H12.8V83.2H6.4V96H0V102.4H6.4V96H12.8V102.4H19.2V96H25.6V102.4H32V108.8H51.2V115.2H64V121.6H70.4V128H76.8V121.6H70.4V115.2H64V108.8H70.4V102.4H76.8V108.8H83.2V102.4H76.8V89.6H89.6V83.2H96V89.6H102.4V96H108.8V102.4H102.4V108.8H96V102.4H89.6V108.8H96V115.2H83.2V134.4H96V140.8H89.6V147.2H70.4V134.4H64V128H57.6V134.4H51.2V160H57.6V140.8H64V160H76.8V153.6H102.4V134.4H115.2V140.8H108.8V153.6H121.6V160H160V153.6H147.2V147.2H153.6V140.8H160V134.4H153.6V128H147.2V134.4H140.8V128H134.4V108.8H140.8V121.6H160V96H153.6V89.6H160V76.8H147.2V70.4H134.4V76.8H121.6V70.4H128V57.6H147.2V64H153.6V57.6H160V51.2H153.6V57.6H147.2V51.2H128V57.6H121.6V70.4H108.8V64H115.2V51.2H108.8V38.4H102.4V51.2H96V38.4H89.6V57.6H83.2V38.4H76.8V32H83.2V25.6H89.6V32H108.8V12.8H102.4V19.2H89.6V0H76.8V6.4H70.4V0H64V6.4H57.6V0H51.2ZM70.4 12.8V25.6H76.8V19.2H83.2V12.8H70.4ZM51.2 38.4V44.8H57.6V38.4H51.2ZM70.4 38.4V51.2H76.8V38.4H70.4ZM70.4 57.6V64H76.8V57.6H70.4ZM89.6 57.6V64H83.2V70.4H70.4V83.2H64V96H51.2V89.6H57.6V76.8H51.2V89.6H44.8V83.2H32V89.6H25.6V96H32V102.4H51.2V108.8H64V102.4H70.4V83.2H76.8V76.8H83.2V70.4H89.6V64H96V70.4H102.4V76.8H96V83.2H108.8V89.6H115.2V102.4H121.6V96H128V89.6H115.2V83.2H108.8V70.4H102.4V57.6H89.6ZM32 70.4V76.8H44.8V70.4H32ZM134.4 76.8V102.4H153.6V96H140.8V89.6H153.6V83.2H140.8V76.8H134.4ZM38.4 89.6V96H44.8V89.6H38.4ZM108.8 108.8V128H128V108.8H108.8ZM147.2 108.8V115.2H153.6V108.8H147.2ZM96 115.2V121.6H102.4V115.2H96ZM115.2 115.2V121.6H121.6V115.2H115.2ZM96 128V134.4H102.4V128H96ZM121.6 134.4V153.6H128V134.4H121.6ZM134.4 140.8V153.6H140.8V140.8H134.4ZM0 0V44.8H44.8V0H0ZM6.4 6.4V38.4H38.4V6.4H6.4ZM12.8 12.8V32H32V12.8H12.8ZM115.2 0V44.8H160V0H115.2ZM121.6 6.4V38.4H153.6V6.4H121.6ZM128 12.8V32H147.2V12.8H128ZM0 115.2V160H44.8V115.2H0ZM6.4 121.6V153.6H38.4V121.6H6.4ZM12.8 128V147.2H32V128H12.8Z" fill="black"/>
</svg>
