<svg width="350" height="261" viewBox="0 0 350 261" fill="none" xmlns="http://www.w3.org/2000/svg">
<g clip-path="url(#clip0_185_2475)">
<path d="M204.282 22.8691H61.0112C53.0985 22.8691 46.6841 29.294 46.6841 37.2195V240.412C46.6841 248.337 53.0985 254.762 61.0112 254.762H204.282C212.195 254.762 218.609 248.337 218.609 240.412V37.2195C218.609 29.294 212.195 22.8691 204.282 22.8691Z" fill="#EB6128"/>
<path d="M286.401 13.7214H157.21C149.508 13.7214 143.263 19.9757 143.263 27.6906V240.335C143.263 248.05 149.508 254.304 157.21 254.304H286.401C294.104 254.304 300.348 248.05 300.348 240.335V27.6906C300.348 19.9757 294.104 13.7214 286.401 13.7214Z" fill="#5A7F8F"/>
<path d="M280.63 34.3672H162.982C158.775 34.3672 155.365 37.783 155.365 41.9966V233.868C155.365 238.082 158.775 241.498 162.982 241.498H280.63C284.837 241.498 288.247 238.082 288.247 233.868V41.9966C288.247 37.783 284.837 34.3672 280.63 34.3672Z" fill="#EBEFF1"/>
<path d="M247.986 32.3218H195.32C189.436 32.3218 184.666 37.0999 184.666 42.994C184.666 48.8881 189.436 53.6663 195.32 53.6663H247.986C253.871 53.6663 258.641 48.8881 258.641 42.994C258.641 37.0999 253.871 32.3218 247.986 32.3218Z" fill="#7C99A9"/>
<path d="M236.266 0H208.259C203.803 0 200.191 3.61773 200.191 8.08042V30.3397C200.191 34.8024 203.803 38.4201 208.259 38.4201H236.266C240.721 38.4201 244.333 34.8024 244.333 30.3397V8.08042C244.333 3.61773 240.721 0 236.266 0Z" fill="#42606B"/>
<path d="M222.262 28.2052C227.222 28.2052 231.243 24.1779 231.243 19.21C231.243 14.2421 227.222 10.2148 222.262 10.2148C217.302 10.2148 213.282 14.2421 213.282 19.21C213.282 24.1779 217.302 28.2052 222.262 28.2052Z" fill="#5A808E"/>
<path d="M191.192 72.908H169.958V94.1762H191.192V72.908Z" fill="#AABFC5"/>
<path d="M178.089 88.4018L173.51 83.3198C173.333 83.133 173.228 82.8897 173.213 82.6329C173.198 82.3761 173.274 82.1222 173.427 81.9159C173.521 81.8018 173.638 81.7093 173.77 81.6446C173.903 81.5799 174.048 81.5446 174.195 81.541C174.343 81.5374 174.489 81.5656 174.625 81.6237C174.76 81.6818 174.882 81.7685 174.981 81.8778L179.122 86.4389C179.122 86.4389 179.16 86.4389 179.167 86.4389L186.143 78.5491C186.24 78.4374 186.359 78.3479 186.493 78.2865C186.627 78.2251 186.773 78.1934 186.92 78.1934C187.068 78.1934 187.213 78.2251 187.347 78.2865C187.481 78.3479 187.601 78.4374 187.697 78.5491C187.855 78.7529 187.934 79.0064 187.921 79.2639C187.909 79.5214 187.804 79.7658 187.627 79.953L180.232 88.4018C180.097 88.5526 179.932 88.6733 179.747 88.7558C179.563 88.8384 179.363 88.8811 179.16 88.8811C178.958 88.8811 178.758 88.8384 178.574 88.7558C178.389 88.6733 178.224 88.5526 178.089 88.4018Z" fill="#678895"/>
<path d="M191.192 116.817H169.958V138.085H191.192V116.817Z" fill="#AABFC5"/>
<path d="M178.089 132.298L173.51 127.254C173.345 127.066 173.249 126.828 173.239 126.578C173.229 126.328 173.304 126.083 173.453 125.882C173.546 125.768 173.663 125.675 173.796 125.611C173.928 125.546 174.073 125.511 174.221 125.507C174.368 125.503 174.515 125.531 174.65 125.59C174.786 125.648 174.907 125.734 175.006 125.844L179.148 130.405C179.148 130.405 179.186 130.405 179.192 130.405L186.169 122.515C186.266 122.404 186.385 122.316 186.519 122.255C186.653 122.194 186.799 122.163 186.946 122.163C187.093 122.163 187.238 122.194 187.372 122.255C187.506 122.316 187.626 122.404 187.723 122.515C187.879 122.72 187.958 122.975 187.946 123.233C187.933 123.491 187.829 123.736 187.653 123.925L180.239 132.298C180.104 132.45 179.938 132.571 179.753 132.654C179.568 132.738 179.367 132.781 179.164 132.781C178.961 132.781 178.76 132.738 178.575 132.654C178.389 132.571 178.224 132.45 178.089 132.298Z" fill="#678895"/>
<path d="M191.192 160.732H169.958V182H191.192V160.732Z" fill="#AABFC5"/>
<path d="M178.089 176.206L173.51 171.163C173.333 170.976 173.228 170.732 173.213 170.476C173.198 170.219 173.274 169.965 173.427 169.759C173.521 169.646 173.639 169.554 173.771 169.49C173.904 169.426 174.048 169.391 174.195 169.387C174.342 169.383 174.489 169.411 174.624 169.469C174.76 169.526 174.881 169.612 174.981 169.721L179.122 174.288C179.122 174.288 179.16 174.288 179.167 174.288L186.143 166.398C186.24 166.287 186.359 166.197 186.493 166.136C186.627 166.074 186.773 166.042 186.92 166.042C187.068 166.042 187.213 166.074 187.347 166.136C187.481 166.197 187.601 166.287 187.697 166.398C187.855 166.602 187.934 166.856 187.921 167.113C187.909 167.371 187.804 167.615 187.627 167.802L180.232 176.194C180.098 176.345 179.934 176.467 179.749 176.551C179.565 176.634 179.366 176.678 179.163 176.679C178.961 176.681 178.761 176.639 178.576 176.558C178.39 176.476 178.225 176.356 178.089 176.206Z" fill="#678895"/>
<path d="M272.949 74.8518H207.624C207.288 74.8518 206.965 74.7179 206.727 74.4797C206.49 74.2414 206.356 73.9183 206.356 73.5813C206.356 73.2443 206.49 72.9212 206.727 72.6829C206.965 72.4446 207.288 72.3108 207.624 72.3108H272.949C273.286 72.3108 273.608 72.4446 273.846 72.6829C274.084 72.9212 274.218 73.2443 274.218 73.5813C274.218 73.9183 274.084 74.2414 273.846 74.4797C273.608 74.7179 273.286 74.8518 272.949 74.8518Z" fill="#EB6128"/>
<path d="M272.949 84.8125H207.624C207.288 84.8125 206.965 84.6786 206.727 84.4404C206.49 84.2021 206.356 83.8789 206.356 83.542C206.356 83.205 206.49 82.8819 206.727 82.6436C206.965 82.4053 207.288 82.2715 207.624 82.2715H272.949C273.286 82.2715 273.608 82.4053 273.846 82.6436C274.084 82.8819 274.218 83.205 274.218 83.542C274.218 83.8789 274.084 84.2021 273.846 84.4404C273.608 84.6786 273.286 84.8125 272.949 84.8125Z" fill="#99A6AC"/>
<path d="M250.27 94.7544H207.65C207.313 94.7544 206.991 94.6205 206.753 94.3823C206.515 94.144 206.381 93.8208 206.381 93.4839C206.381 93.1469 206.515 92.8238 206.753 92.5855C206.991 92.3472 207.313 92.2134 207.65 92.2134H250.27C250.606 92.2134 250.929 92.3472 251.166 92.5855C251.404 92.8238 251.538 93.1469 251.538 93.4839C251.538 93.8208 251.404 94.144 251.166 94.3823C250.929 94.6205 250.606 94.7544 250.27 94.7544Z" fill="#99A6AC"/>
<path d="M272.949 118.76H207.624C207.288 118.76 206.965 118.627 206.727 118.388C206.49 118.15 206.356 117.827 206.356 117.49C206.356 117.153 206.49 116.83 206.727 116.592C206.965 116.353 207.288 116.219 207.624 116.219H272.949C273.286 116.219 273.608 116.353 273.846 116.592C274.084 116.83 274.218 117.153 274.218 117.49C274.218 117.827 274.084 118.15 273.846 118.388C273.608 118.627 273.286 118.76 272.949 118.76Z" fill="#EB6128"/>
<path d="M272.949 128.721H207.624C207.288 128.721 206.965 128.587 206.727 128.349C206.49 128.111 206.356 127.788 206.356 127.451C206.356 127.114 206.49 126.791 206.727 126.552C206.965 126.314 207.288 126.18 207.624 126.18H272.949C273.286 126.18 273.608 126.314 273.846 126.552C274.084 126.791 274.218 127.114 274.218 127.451C274.218 127.788 274.084 128.111 273.846 128.349C273.608 128.587 273.286 128.721 272.949 128.721Z" fill="#99A6AC"/>
<path d="M250.27 138.688H207.65C207.313 138.688 206.991 138.555 206.753 138.316C206.515 138.078 206.381 137.755 206.381 137.418C206.381 137.081 206.515 136.758 206.753 136.52C206.991 136.281 207.313 136.147 207.65 136.147H250.27C250.606 136.147 250.929 136.281 251.166 136.52C251.404 136.758 251.538 137.081 251.538 137.418C251.538 137.755 251.404 138.078 251.166 138.316C250.929 138.555 250.606 138.688 250.27 138.688Z" fill="#99A6AC"/>
<path d="M272.949 162.669H207.624C207.288 162.669 206.965 162.535 206.727 162.297C206.49 162.059 206.356 161.736 206.356 161.399C206.356 161.062 206.49 160.739 206.727 160.5C206.965 160.262 207.288 160.128 207.624 160.128H272.949C273.286 160.128 273.608 160.262 273.846 160.5C274.084 160.739 274.218 161.062 274.218 161.399C274.218 161.736 274.084 162.059 273.846 162.297C273.608 162.535 273.286 162.669 272.949 162.669Z" fill="#EB6128"/>
<path d="M272.949 172.636H207.624C207.288 172.636 206.965 172.502 206.727 172.264C206.49 172.026 206.356 171.703 206.356 171.366C206.356 171.029 206.49 170.706 206.727 170.467C206.965 170.229 207.288 170.095 207.624 170.095H272.949C273.286 170.095 273.608 170.229 273.846 170.467C274.084 170.706 274.218 171.029 274.218 171.366C274.218 171.703 274.084 172.026 273.846 172.264C273.608 172.502 273.286 172.636 272.949 172.636Z" fill="#99A6AC"/>
<path d="M250.27 182.597H207.65C207.313 182.597 206.991 182.463 206.753 182.225C206.515 181.987 206.381 181.664 206.381 181.327C206.381 180.99 206.515 180.667 206.753 180.428C206.991 180.19 207.313 180.056 207.65 180.056H250.27C250.606 180.056 250.929 180.19 251.166 180.428C251.404 180.667 251.538 180.99 251.538 181.327C251.538 181.664 251.404 181.987 251.166 182.225C250.929 182.463 250.606 182.597 250.27 182.597Z" fill="#99A6AC"/>
<path d="M191.192 204.64H169.958V225.909H191.192V204.64Z" fill="#AABFC5"/>
<path d="M178.089 220.115L173.51 215.078C173.333 214.891 173.228 214.648 173.213 214.391C173.198 214.134 173.274 213.88 173.427 213.674C173.521 213.56 173.638 213.467 173.77 213.402C173.903 213.338 174.048 213.302 174.195 213.299C174.343 213.295 174.489 213.323 174.625 213.381C174.76 213.44 174.882 213.526 174.981 213.636L179.122 218.197C179.122 218.197 179.16 218.197 179.167 218.197L186.143 210.307C186.24 210.195 186.359 210.106 186.493 210.044C186.627 209.983 186.773 209.951 186.92 209.951C187.068 209.951 187.213 209.983 187.347 210.044C187.481 210.106 187.601 210.195 187.697 210.307C187.855 210.511 187.934 210.764 187.921 211.022C187.909 211.279 187.804 211.524 187.627 211.711L180.213 220.083C180.081 220.233 179.918 220.354 179.737 220.437C179.555 220.52 179.358 220.565 179.158 220.568C178.958 220.571 178.76 220.532 178.576 220.454C178.392 220.376 178.226 220.261 178.089 220.115Z" fill="#678895"/>
<path d="M272.949 206.559H207.624C207.288 206.559 206.965 206.425 206.727 206.187C206.49 205.948 206.356 205.625 206.356 205.288C206.356 204.951 206.49 204.628 206.727 204.39C206.965 204.152 207.288 204.018 207.624 204.018H272.949C273.286 204.018 273.608 204.152 273.846 204.39C274.084 204.628 274.218 204.951 274.218 205.288C274.218 205.625 274.084 205.948 273.846 206.187C273.608 206.425 273.286 206.559 272.949 206.559Z" fill="#EB6128"/>
<path d="M272.949 216.545H207.624C207.288 216.545 206.965 216.411 206.727 216.173C206.49 215.935 206.356 215.611 206.356 215.274C206.356 214.937 206.49 214.614 206.727 214.376C206.965 214.138 207.288 214.004 207.624 214.004H272.949C273.286 214.004 273.608 214.138 273.846 214.376C274.084 214.614 274.218 214.937 274.218 215.274C274.218 215.611 274.084 215.935 273.846 216.173C273.608 216.411 273.286 216.545 272.949 216.545Z" fill="#99A6AC"/>
<path d="M250.27 226.512H207.65C207.313 226.512 206.991 226.378 206.753 226.14C206.515 225.902 206.381 225.579 206.381 225.242C206.381 224.905 206.515 224.582 206.753 224.343C206.991 224.105 207.313 223.971 207.65 223.971H250.27C250.606 223.971 250.929 224.105 251.166 224.343C251.404 224.582 251.538 224.905 251.538 225.242C251.538 225.579 251.404 225.902 251.166 226.14C250.929 226.378 250.606 226.512 250.27 226.512Z" fill="#99A6AC"/>
<path d="M346.012 261H3.98822C3.06309 261 2.17585 260.632 1.52168 259.977C0.867508 259.321 0.5 258.433 0.5 257.506C0.5 256.579 0.867508 255.691 1.52168 255.036C2.17585 254.38 3.06309 254.012 3.98822 254.012H346.012C346.937 254.012 347.824 254.38 348.478 255.036C349.133 255.691 349.5 256.579 349.5 257.506C349.5 258.433 349.133 259.321 348.478 259.977C347.824 260.632 346.937 261 346.012 261Z" fill="#BCC5CC"/>
<path d="M129.26 40.5481H113.125V146.667H129.26V40.5481Z" fill="#59808F"/>
<path d="M125.759 6.40332H116.626C114.693 6.40332 113.125 7.97328 113.125 9.90992V45.8906C113.125 47.8273 114.693 49.3972 116.626 49.3972H125.759C127.692 49.3972 129.26 47.8273 129.26 45.8906V9.90992C129.26 7.97328 127.692 6.40332 125.759 6.40332Z" fill="#44636E"/>
<path d="M119.823 158.534L113.081 146.667L129.304 146.769L122.417 158.546C122.284 158.774 122.094 158.963 121.866 159.093C121.638 159.224 121.379 159.292 121.116 159.291C120.853 159.29 120.595 159.219 120.368 159.086C120.141 158.953 119.953 158.763 119.823 158.534Z" fill="#789DA5"/>
<path d="M119.468 157.911L119.823 158.546C119.954 158.775 120.143 158.964 120.371 159.096C120.598 159.228 120.857 159.297 121.12 159.297C121.383 159.297 121.641 159.228 121.869 159.096C122.096 158.964 122.285 158.775 122.417 158.546L122.791 157.911H119.468Z" fill="#527C70"/>
</g>
<defs>
<clipPath id="clip0_185_2475">
<rect width="349" height="261" fill="white" transform="translate(0.5)"/>
</clipPath>
</defs>
</svg>
