<svg width="340" height="235" viewBox="0 0 340 235" fill="none" xmlns="http://www.w3.org/2000/svg">
<g clip-path="url(#clip0_185_2511)">
<path d="M227.239 10.8994H24.9411C10.9823 10.8994 -0.333496 22.1533 -0.333496 36.0358V163.267C-0.333496 177.15 10.9823 188.404 24.9411 188.404H227.239C241.198 188.404 252.514 177.15 252.514 163.267V36.0358C252.514 22.1533 241.198 10.8994 227.239 10.8994Z" fill="#EBEFF1"/>
<path d="M35.5962 0H33.1173C30.7034 0 28.7466 1.94612 28.7466 4.34678V19.5281C28.7466 21.9287 30.7034 23.8748 33.1173 23.8748H35.5962C38.01 23.8748 39.9668 21.9287 39.9668 19.5281V4.34678C39.9668 1.94612 38.01 0 35.5962 0Z" fill="#EB6128"/>
<path d="M97.9018 0H95.4229C93.0091 0 91.0522 1.94612 91.0522 4.34678V19.5281C91.0522 21.9287 93.0091 23.8748 95.4229 23.8748H97.9018C100.316 23.8748 102.273 21.9287 102.273 19.5281V4.34678C102.273 1.94612 100.316 0 97.9018 0Z" fill="#EB6128"/>
<path d="M162.382 0H159.903C157.489 0 155.532 1.94612 155.532 4.34678V19.5281C155.532 21.9287 157.489 23.8748 159.903 23.8748H162.382C164.796 23.8748 166.753 21.9287 166.753 19.5281V4.34678C166.753 1.94612 164.796 0 162.382 0Z" fill="#EB6128"/>
<path d="M222.513 0H220.035C217.621 0 215.664 1.94612 215.664 4.34678V19.5281C215.664 21.9287 217.621 23.8748 220.035 23.8748H222.513C224.927 23.8748 226.884 21.9287 226.884 19.5281V4.34678C226.884 1.94612 224.927 0 222.513 0Z" fill="#EB6128"/>
<path d="M34.3567 37.3117C40.1692 37.3117 44.8811 32.6255 44.8811 26.8448C44.8811 21.0641 40.1692 16.3779 34.3567 16.3779C28.5442 16.3779 23.8323 21.0641 23.8323 26.8448C23.8323 32.6255 28.5442 37.3117 34.3567 37.3117Z" fill="#FFA270"/>
<path d="M96.6624 37.3117C102.475 37.3117 107.187 32.6255 107.187 26.8448C107.187 21.0641 102.475 16.3779 96.6624 16.3779C90.8499 16.3779 86.1379 21.0641 86.1379 26.8448C86.1379 32.6255 90.8499 37.3117 96.6624 37.3117Z" fill="#FFA270"/>
<path d="M161.143 37.3117C166.955 37.3117 171.667 32.6255 171.667 26.8448C171.667 21.0641 166.955 16.3779 161.143 16.3779C155.33 16.3779 150.618 21.0641 150.618 26.8448C150.618 32.6255 155.33 37.3117 161.143 37.3117Z" fill="#FFA270"/>
<path d="M221.274 37.3117C227.086 37.3117 231.798 32.6255 231.798 26.8448C231.798 21.0641 227.086 16.3779 221.274 16.3779C215.461 16.3779 210.75 21.0641 210.75 26.8448C210.75 32.6255 215.461 37.3117 221.274 37.3117Z" fill="#FFA270"/>
<path d="M52.3104 48.7329C44.6922 48.7329 37.3859 51.7427 31.999 57.1002C26.612 62.4577 23.5857 69.7239 23.5857 77.3006V77.3942C23.5847 81.1464 24.327 84.862 25.7702 88.3288C27.2133 91.7956 29.329 94.9458 31.9964 97.5993C34.6638 100.253 37.8308 102.358 41.3163 103.794C44.8018 105.23 48.5376 105.969 52.3104 105.969C56.0836 105.969 59.8198 105.23 63.3057 103.794C66.7916 102.358 69.959 100.253 72.627 97.5997C75.295 94.9463 77.4114 91.7962 78.8553 88.3294C80.2992 84.8625 81.0424 81.1467 81.0424 77.3942V77.3006C81.0405 69.7233 78.0125 62.457 72.6245 57.0997C67.2364 51.7425 59.9294 48.7329 52.3104 48.7329Z" fill="#EB6128"/>
<path d="M126.228 48.7329C118.61 48.7329 111.304 51.7427 105.917 57.1002C100.53 62.4577 97.5034 69.7239 97.5034 77.3006V77.3942C97.5025 81.1464 98.2448 84.862 99.6879 88.3288C101.131 91.7956 103.247 94.9458 105.914 97.5993C108.582 100.253 111.748 102.358 115.234 103.794C118.72 105.23 122.455 105.969 126.228 105.969C133.848 105.969 141.156 102.959 146.545 97.5997C151.933 92.2409 154.96 84.9728 154.96 77.3942V77.3006C154.958 69.7233 151.93 62.457 146.542 57.0997C141.154 51.7425 133.847 48.7329 126.228 48.7329Z" fill="#FED188"/>
<path d="M200.145 48.7329C192.527 48.7329 185.221 51.7427 179.834 57.1002C174.447 62.4577 171.421 69.7239 171.421 77.3006V77.3942C171.42 81.1464 172.162 84.862 173.605 88.3288C175.048 91.7956 177.164 94.9458 179.831 97.5993C182.499 100.253 185.666 102.358 189.151 103.794C192.637 105.23 196.373 105.969 200.145 105.969C207.766 105.969 215.074 102.959 220.462 97.5997C225.85 92.2409 228.877 84.9728 228.877 77.3942V77.3006C228.875 69.7233 225.847 62.457 220.459 57.0997C215.071 51.7425 207.764 48.7329 200.145 48.7329Z" fill="#FED188"/>
<path d="M52.3177 116.205H52.3104C36.4462 116.205 23.5857 128.995 23.5857 144.773V144.866C23.5857 160.644 36.4462 173.434 52.3104 173.434H52.3177C68.1819 173.434 81.0424 160.644 81.0424 144.866V144.773C81.0424 128.995 68.1819 116.205 52.3177 116.205Z" fill="#FED188"/>
<path d="M126.228 116.205C118.61 116.205 111.304 119.215 105.917 124.572C100.53 129.93 97.5034 137.196 97.5034 144.773V144.895C97.5025 148.647 98.2448 152.363 99.6879 155.83C101.131 159.297 103.247 162.447 105.914 165.1C108.582 167.754 111.748 169.859 115.234 171.295C118.72 172.731 122.455 173.47 126.228 173.47C133.848 173.47 141.156 170.46 146.545 165.101C151.933 159.742 154.96 152.474 154.96 144.895V144.802C154.963 141.047 154.222 137.329 152.779 133.86C151.337 130.39 149.221 127.238 146.552 124.582C143.884 121.926 140.716 119.82 137.228 118.382C133.741 116.945 130.003 116.205 126.228 116.205Z" fill="#FED188"/>
<path d="M200.145 116.205C192.527 116.205 185.221 119.215 179.834 124.572C174.447 129.93 171.421 137.196 171.421 144.773V144.895C171.42 148.647 172.162 152.363 173.605 155.83C175.048 159.297 177.164 162.447 179.831 165.1C182.499 167.754 185.666 169.859 189.151 171.295C192.637 172.731 196.373 173.47 200.145 173.47C207.766 173.47 215.074 170.46 220.462 165.101C225.85 159.742 228.877 152.474 228.877 144.895V144.802C228.88 141.047 228.139 137.329 226.697 133.86C225.254 130.39 223.138 127.238 220.47 124.582C217.801 121.926 214.633 119.82 211.146 118.382C207.658 116.945 203.92 116.205 200.145 116.205Z" fill="#FED188"/>
<path d="M45.8378 90.4417L33.4506 76.7454C32.9732 76.2402 32.6886 75.5848 32.646 74.8928C32.6049 74.2033 32.8103 73.5215 33.2259 72.9681C33.4823 72.6672 33.7981 72.4219 34.1537 72.2472C34.5135 72.0745 34.9066 71.981 35.3061 71.9733C35.7046 71.9609 36.1009 72.0372 36.4659 72.1967C36.8328 72.3505 37.1617 72.5817 37.4299 72.8744L48.6356 85.129H48.7589L67.6043 63.8997C67.8617 63.5939 68.1833 63.3478 68.5465 63.1788C68.9106 63.0136 69.306 62.9276 69.7062 62.9265C70.1051 62.9281 70.499 63.0144 70.8615 63.1798C71.224 63.3451 71.5468 63.5857 71.8082 63.8852C72.2397 64.4318 72.4583 65.1149 72.4237 65.8089C72.389 66.5029 72.1036 67.1612 71.6198 67.6625L51.6364 90.4417C51.2709 90.8467 50.824 91.1709 50.3245 91.3932C49.8254 91.6164 49.2843 91.7318 48.7371 91.7318C48.1899 91.7318 47.6488 91.6164 47.1497 91.3932C46.6513 91.1691 46.2047 90.8452 45.8378 90.4417Z" fill="#FDDED7"/>
<path d="M262.524 225.636C300.113 225.636 330.585 195.331 330.585 157.947C330.585 120.564 300.113 90.2588 262.524 90.2588C224.935 90.2588 194.463 120.564 194.463 157.947C194.463 195.331 224.935 225.636 262.524 225.636Z" fill="#7C99A9"/>
<path d="M262.56 90.2586C276.021 90.2586 289.18 94.2285 300.372 101.666C311.565 109.104 320.289 119.675 325.44 132.044C330.591 144.412 331.939 158.022 329.313 171.153C326.687 184.283 320.205 196.344 310.686 205.81C301.168 215.277 289.04 221.724 275.838 224.335C262.635 226.947 248.951 225.607 236.514 220.483C224.078 215.36 213.448 206.684 205.969 195.553C198.491 184.422 194.499 171.335 194.499 157.947C194.499 139.995 201.67 122.778 214.434 110.084C227.197 97.3901 244.509 90.2586 262.56 90.2586ZM262.56 80.8875C244.633 80.8859 227.261 87.0663 213.403 98.3755C199.544 109.685 190.058 125.423 186.559 142.909C183.061 160.394 185.767 178.546 194.217 194.269C202.666 209.993 216.337 222.317 232.898 229.14C249.46 235.963 267.888 236.864 285.043 231.69C302.198 226.515 317.018 215.584 326.977 200.761C336.937 185.937 341.421 168.137 339.664 150.395C337.907 132.652 330.018 116.064 317.342 103.458C310.165 96.28 301.627 90.5895 292.224 86.7153C282.821 82.8412 272.738 80.8603 262.56 80.8875Z" fill="#5A7F8F"/>
<path d="M321.778 163.397C324.804 163.397 327.258 160.957 327.258 157.947C327.258 154.938 324.804 152.498 321.778 152.498C318.752 152.498 316.298 154.938 316.298 157.947C316.298 160.957 318.752 163.397 321.778 163.397Z" fill="#AABFC5"/>
<path d="M202.566 163.397C205.593 163.397 208.046 160.957 208.046 157.947C208.046 154.938 205.593 152.498 202.566 152.498C199.54 152.498 197.087 154.938 197.087 157.947C197.087 160.957 199.54 163.397 202.566 163.397Z" fill="#AABFC5"/>
<path d="M262.524 104.193C265.55 104.193 268.003 101.753 268.003 98.7431C268.003 95.7334 265.55 93.2935 262.524 93.2935C259.497 93.2935 257.044 95.7334 257.044 98.7431C257.044 101.753 259.497 104.193 262.524 104.193Z" fill="#AABFC5"/>
<path d="M262.524 222.529C265.55 222.529 268.003 220.089 268.003 217.079C268.003 214.07 265.55 211.63 262.524 211.63C259.497 211.63 257.044 214.07 257.044 217.079C257.044 220.089 259.497 222.529 262.524 222.529Z" fill="#AABFC5"/>
<path d="M249.846 152.462H221.187C218.521 152.462 216.36 154.611 216.36 157.263V159.036C216.36 161.687 218.521 163.837 221.187 163.837H249.846C252.513 163.837 254.674 161.687 254.674 159.036V157.263C254.674 154.611 252.513 152.462 249.846 152.462Z" fill="#EBEFF1"/>
<path d="M309.216 182.1L276.02 160.685C273.397 158.993 269.892 159.736 268.19 162.344L268.127 162.441C266.426 165.05 267.173 168.536 269.796 170.228L302.992 191.643C305.615 193.335 309.12 192.592 310.822 189.984L310.885 189.887C312.586 187.279 311.839 183.792 309.216 182.1Z" fill="#EBEFF1"/>
<path d="M261.98 171.882C269.666 171.882 275.897 165.685 275.897 158.041C275.897 150.397 269.666 144.201 261.98 144.201C254.294 144.201 248.063 150.397 248.063 158.041C248.063 165.685 254.294 171.882 261.98 171.882Z" fill="#42606B"/>
<path d="M261.813 163.361C264.84 163.361 267.293 160.921 267.293 157.911C267.293 154.902 264.84 152.462 261.813 152.462C258.787 152.462 256.334 154.902 256.334 157.911C256.334 160.921 258.787 163.361 261.813 163.361Z" fill="#EBEFF1"/>
</g>
<defs>
<clipPath id="clip0_185_2511">
<rect width="340" height="235" fill="white"/>
</clipPath>
</defs>
</svg>
