<svg width="232" height="289" viewBox="0 0 232 289" fill="none" xmlns="http://www.w3.org/2000/svg">
<g clip-path="url(#clip0_186_2541)">
<path d="M147.36 150.607L70.0828 73.163C65.2477 68.3175 57.3893 68.2983 52.5306 73.1202L10.2319 115.098C5.37309 119.92 5.35389 127.757 10.189 132.602L87.4665 210.047C92.3016 214.892 100.16 214.911 105.019 210.09L147.317 168.112C152.176 163.29 152.195 155.453 147.36 150.607Z" fill="#989898"/>
<path d="M56.8077 71.6599L138.226 153.254L120.288 171.056L37.7445 88.3346L54.5566 71.65C54.7049 71.5029 54.8808 71.3864 55.0743 71.3073C55.2678 71.2281 55.4751 71.1878 55.6842 71.1887C55.8934 71.1897 56.1003 71.2317 56.2931 71.3126C56.4859 71.3934 56.6608 71.5115 56.8077 71.6599Z" fill="#676767"/>
<path d="M40.6375 143.885L21.1452 124.351C20.345 123.549 19.0444 123.546 18.2403 124.344L18.1963 124.388C17.3922 125.186 17.389 126.483 18.1892 127.285L37.6815 146.819C38.4817 147.621 39.7823 147.624 40.5864 146.826L40.6304 146.782C41.4345 145.984 41.4377 144.687 40.6375 143.885Z" fill="#7F7F81"/>
<path d="M67.9155 157.611L27.9854 117.595C27.1731 116.781 25.8529 116.777 25.0366 117.587C24.2204 118.397 24.2171 119.714 25.0294 120.528L64.9595 160.544C65.7718 161.358 67.092 161.362 67.9083 160.552C68.7246 159.742 68.7278 158.425 67.9155 157.611Z" fill="#7F7F81"/>
<path d="M104.407 185.948L92.1466 173.721C90.8064 172.385 88.6336 172.385 87.2934 173.721L81.8653 179.134C80.5252 180.471 80.5251 182.638 81.8653 183.974L94.1256 196.201C95.4658 197.538 97.6386 197.538 98.9788 196.201L104.407 190.788C105.747 189.452 105.747 187.285 104.407 185.948Z" fill="#E6E6E5"/>
<path d="M122.466 190.47H12.9113C6.05675 190.47 0.5 196.012 0.5 202.847V262.359C0.5 269.194 6.05675 274.736 12.9113 274.736H122.466C129.321 274.736 134.878 269.194 134.878 262.359V202.847C134.878 196.012 129.321 190.47 122.466 190.47Z" fill="#EB6128"/>
<path d="M117.446 220.157H96.2349C93.8872 220.157 91.984 222.055 91.984 224.397V235.246C91.984 237.587 93.8872 239.485 96.2349 239.485H117.446C119.794 239.485 121.697 237.587 121.697 235.246V224.397C121.697 222.055 119.794 220.157 117.446 220.157Z" fill="#EFF2F6"/>
<path d="M20.9291 234.014C22.5605 234.014 23.883 232.695 23.883 231.068C23.883 229.441 22.5605 228.123 20.9291 228.123C19.2977 228.123 17.9752 229.441 17.9752 231.068C17.9752 232.695 19.2977 234.014 20.9291 234.014Z" fill="#EFF2F6"/>
<path d="M30.461 234.014C32.0924 234.014 33.4149 232.695 33.4149 231.068C33.4149 229.441 32.0924 228.123 30.461 228.123C28.8296 228.123 27.5071 229.441 27.5071 231.068C27.5071 232.695 28.8296 234.014 30.461 234.014Z" fill="#EFF2F6"/>
<path d="M39.993 234.014C41.6244 234.014 42.9469 232.695 42.9469 231.068C42.9469 229.441 41.6244 228.123 39.993 228.123C38.3616 228.123 37.0391 229.441 37.0391 231.068C37.0391 232.695 38.3616 234.014 39.993 234.014Z" fill="#EFF2F6"/>
<path d="M55.7305 234.014C57.3619 234.014 58.6844 232.695 58.6844 231.068C58.6844 229.441 57.3619 228.123 55.7305 228.123C54.0991 228.123 52.7766 229.441 52.7766 231.068C52.7766 232.695 54.0991 234.014 55.7305 234.014Z" fill="#EFF2F6"/>
<path d="M65.2624 234.014C66.8938 234.014 68.2163 232.695 68.2163 231.068C68.2163 229.441 66.8938 228.123 65.2624 228.123C63.631 228.123 62.3085 229.441 62.3085 231.068C62.3085 232.695 63.631 234.014 65.2624 234.014Z" fill="#EFF2F6"/>
<path d="M74.7944 234.014C76.4258 234.014 77.7483 232.695 77.7483 231.068C77.7483 229.441 76.4258 228.123 74.7944 228.123C73.163 228.123 71.8405 229.441 71.8405 231.068C71.8405 232.695 73.163 234.014 74.7944 234.014Z" fill="#EFF2F6"/>
<path d="M43.3936 261.17H14.7979C13.6463 261.17 12.7128 262.101 12.7128 263.25C12.7128 264.398 13.6463 265.329 14.7979 265.329H43.3936C44.5452 265.329 45.4787 264.398 45.4787 263.25C45.4787 262.101 44.5452 261.17 43.3936 261.17Z" fill="#EFF2F6"/>
<path d="M226.969 142.872V220.745C227.045 222.903 227.87 224.968 229.302 226.588C230.794 228.292 231.63 230.471 231.66 232.733V270.899C231.685 280.616 223.556 288.525 213.565 288.525H125.096C115.105 288.525 107.001 280.64 107.001 270.924V232.702C106.974 230.491 107.742 228.344 109.166 226.65C110.625 225.018 111.465 222.93 111.543 220.745V142.872C111.543 140.737 110.432 138.361 108.949 136.374C107.695 134.708 107.011 132.684 107.001 130.6V87.0684C107.001 77.352 115.105 69.4675 125.096 69.4675H213.565C223.556 69.4675 231.66 77.352 231.66 87.0684V130.39C231.652 132.507 230.948 134.564 229.656 136.244C228.123 138.262 226.969 140.7 226.969 142.872Z" fill="#5A7F8F"/>
<path d="M211.383 117.839H127.681C122.334 117.839 118 122.161 118 127.493V168.488C118 173.82 122.334 178.142 127.681 178.142H211.383C216.73 178.142 221.064 173.82 221.064 168.488V127.493C221.064 122.161 216.73 117.839 211.383 117.839Z" fill="#EBEFF1"/>
<path d="M211.358 120.314C213.267 120.316 215.097 121.073 216.447 122.419C217.796 123.765 218.555 125.59 218.557 127.493V168.463C218.555 170.366 217.796 172.191 216.447 173.537C215.097 174.883 213.267 175.64 211.358 175.642H127.681C125.772 175.64 123.942 174.883 122.592 173.537C121.243 172.191 120.484 170.366 120.482 168.463V127.493C120.484 125.59 121.243 123.765 122.592 122.419C123.942 121.073 125.772 120.316 127.681 120.314H211.358ZM211.358 117.839H127.681C126.409 117.838 125.15 118.087 123.975 118.572C122.8 119.057 121.733 119.768 120.834 120.665C119.935 121.561 119.221 122.626 118.735 123.798C118.249 124.969 117.999 126.225 118 127.493V168.463C117.999 169.731 118.249 170.987 118.735 172.158C119.221 173.33 119.935 174.395 120.834 175.291C121.733 176.188 122.8 176.899 123.975 177.384C125.15 177.869 126.409 178.118 127.681 178.117H211.358C213.926 178.117 216.388 177.1 218.204 175.29C220.019 173.479 221.039 171.023 221.039 168.463V127.493C221.039 124.933 220.019 122.477 218.204 120.667C216.388 118.856 213.926 117.839 211.358 117.839Z" fill="#808080"/>
<path d="M194.862 135.452H143.572C143.319 135.456 143.072 135.376 142.871 135.223C142.781 135.16 142.708 135.077 142.657 134.98C142.607 134.883 142.58 134.775 142.58 134.666C142.58 134.557 142.607 134.449 142.657 134.352C142.708 134.255 142.781 134.172 142.871 134.109C143.072 133.957 143.319 133.876 143.572 133.88H194.862C195.115 133.875 195.362 133.956 195.563 134.109C195.653 134.172 195.726 134.255 195.776 134.352C195.827 134.449 195.853 134.557 195.853 134.666C195.853 134.775 195.827 134.883 195.776 134.98C195.726 135.077 195.653 135.16 195.563 135.223C195.362 135.376 195.115 135.457 194.862 135.452Z" fill="#AABFC5"/>
<path d="M194.862 142.396H143.572C143.319 142.4 143.072 142.319 142.871 142.167C142.783 142.102 142.711 142.018 142.66 141.922C142.61 141.825 142.582 141.719 142.579 141.61C142.582 141.501 142.61 141.394 142.661 141.298C142.711 141.202 142.783 141.118 142.871 141.053C143.073 140.903 143.319 140.823 143.572 140.824H194.862C195.114 140.822 195.36 140.902 195.563 141.053C195.651 141.117 195.724 141.2 195.774 141.297C195.825 141.394 195.852 141.501 195.855 141.61C195.853 141.719 195.826 141.826 195.775 141.923C195.724 142.019 195.652 142.103 195.563 142.167C195.362 142.32 195.115 142.401 194.862 142.396Z" fill="#AABFC5"/>
<path d="M170.908 149.34H143.404C143.188 149.341 142.979 149.259 142.821 149.111C142.747 149.038 142.688 148.951 142.647 148.856C142.607 148.76 142.586 148.657 142.585 148.554C142.586 148.451 142.607 148.349 142.647 148.254C142.688 148.16 142.747 148.074 142.821 148.003C142.978 147.853 143.187 147.769 143.404 147.768H170.914C171.131 147.769 171.34 147.853 171.497 148.003C171.573 148.073 171.632 148.159 171.673 148.254C171.713 148.348 171.734 148.451 171.733 148.554C171.734 148.658 171.714 148.761 171.673 148.856C171.633 148.952 171.573 149.039 171.497 149.111C171.338 149.26 171.127 149.342 170.908 149.34Z" fill="#AABFC5"/>
<path d="M182.177 156.902H156.262C152.396 156.902 149.262 160.028 149.262 163.883C149.262 167.739 152.396 170.864 156.262 170.864H182.177C186.043 170.864 189.177 167.739 189.177 163.883C189.177 160.028 186.043 156.902 182.177 156.902Z" fill="#AABFC5"/>
<path d="M145.654 189.133H124.059C121.817 189.133 120 190.945 120 193.181V202.687C120 204.922 121.817 206.734 124.059 206.734H145.654C147.896 206.734 149.713 204.922 149.713 202.687V193.181C149.713 190.945 147.896 189.133 145.654 189.133Z" fill="#EFF2F6"/>
<path d="M179.922 189.133H158.326C156.085 189.133 154.268 190.945 154.268 193.181V202.687C154.268 204.922 156.085 206.734 158.326 206.734H179.922C182.164 206.734 183.981 204.922 183.981 202.687V193.181C183.981 190.945 182.164 189.133 179.922 189.133Z" fill="#EFF2F6"/>
<path d="M214.19 189.133H192.594C190.353 189.133 188.536 190.945 188.536 193.181V202.687C188.536 204.922 190.353 206.734 192.594 206.734H214.19C216.431 206.734 218.248 204.922 218.248 202.687V193.181C218.248 190.945 216.431 189.133 214.19 189.133Z" fill="#EFF2F6"/>
<path d="M145.654 211.803H124.059C121.817 211.803 120 213.615 120 215.85V225.356C120 227.591 121.817 229.404 124.059 229.404H145.654C147.896 229.404 149.713 227.591 149.713 225.356V215.85C149.713 213.615 147.896 211.803 145.654 211.803Z" fill="#EFF2F6"/>
<path d="M179.922 211.803H158.326C156.085 211.803 154.268 213.615 154.268 215.85V225.356C154.268 227.591 156.085 229.404 158.326 229.404H179.922C182.164 229.404 183.981 227.591 183.981 225.356V215.85C183.981 213.615 182.164 211.803 179.922 211.803Z" fill="#EFF2F6"/>
<path d="M214.19 211.803H192.594C190.353 211.803 188.536 213.615 188.536 215.85V225.356C188.536 227.591 190.353 229.404 192.594 229.404H214.19C216.431 229.404 218.248 227.591 218.248 225.356V215.85C218.248 213.615 216.431 211.803 214.19 211.803Z" fill="#EFF2F6"/>
<path d="M145.654 234.466H124.059C121.817 234.466 120 236.278 120 238.514V248.019C120 250.255 121.817 252.067 124.059 252.067H145.654C147.896 252.067 149.713 250.255 149.713 248.019V238.514C149.713 236.278 147.896 234.466 145.654 234.466Z" fill="#EFF2F6"/>
<path d="M179.922 234.466H158.326C156.085 234.466 154.268 236.278 154.268 238.514V248.019C154.268 250.255 156.085 252.067 158.326 252.067H179.922C182.164 252.067 183.981 250.255 183.981 248.019V238.514C183.981 236.278 182.164 234.466 179.922 234.466Z" fill="#EFF2F6"/>
<path d="M214.19 234.466H192.594C190.353 234.466 188.536 236.278 188.536 238.514V248.019C188.536 250.255 190.353 252.067 192.594 252.067H214.19C216.431 252.067 218.248 250.255 218.248 248.019V238.514C218.248 236.278 216.431 234.466 214.19 234.466Z" fill="#EFF2F6"/>
<path d="M145.654 257.135H124.059C121.817 257.135 120 258.947 120 261.183V270.689C120 272.924 121.817 274.736 124.059 274.736H145.654C147.896 274.736 149.713 272.924 149.713 270.689V261.183C149.713 258.947 147.896 257.135 145.654 257.135Z" fill="#F05A6D"/>
<path d="M179.922 257.135H158.326C156.085 257.135 154.268 258.947 154.268 261.183V270.689C154.268 272.924 156.085 274.736 158.326 274.736H179.922C182.164 274.736 183.981 272.924 183.981 270.689V261.183C183.981 258.947 182.164 257.135 179.922 257.135Z" fill="#FDBA4E"/>
<path d="M214.19 257.135H192.594C190.353 257.135 188.536 258.947 188.536 261.183V270.689C188.536 272.924 190.353 274.736 192.594 274.736H214.19C216.431 274.736 218.248 272.924 218.248 270.689V261.183C218.248 258.947 216.431 257.135 214.19 257.135Z" fill="#4EBC83"/>
<path d="M207.403 288.525H130.49C131.288 285.987 132.876 283.768 135.024 282.192C137.173 280.616 139.769 279.765 142.436 279.761H195.457C198.125 279.763 200.722 280.614 202.871 282.19C205.02 283.766 206.608 285.986 207.403 288.525Z" fill="#474F58"/>
<path d="M209.755 99.9037H128.138C126.904 99.9037 125.72 99.4147 124.847 98.5443C123.974 97.6738 123.484 96.4932 123.484 95.2622C123.484 94.0312 123.974 92.8505 124.847 91.9801C125.72 91.1096 126.904 90.6206 128.138 90.6206H209.755C210.99 90.6206 212.174 91.1096 213.046 91.9801C213.919 92.8505 214.41 94.0312 214.41 95.2622C214.41 96.4932 213.919 97.6738 213.046 98.5443C212.174 99.4147 210.99 99.9037 209.755 99.9037Z" fill="#2D2D2D"/>
<path d="M129.032 11.1001L132.011 6.94121L137.968 14.6648L147.202 1L157.131 14.6648L165.645 1L174.582 16.1501L185.901 2.18823L195.83 13.4765L201.688 4.56471L210.028 16.1501V95.4095C210.027 95.6601 209.926 95.9 209.749 96.0772C209.571 96.2545 209.33 96.3547 209.079 96.3564H129.981C129.73 96.3547 129.49 96.2545 129.312 96.0772C129.134 95.9 129.034 95.6601 129.032 95.4095V11.1001Z" fill="#EBEFF1"/>
<path d="M197.828 43.7223H140.978C140.773 43.7354 140.568 43.7065 140.374 43.6374C140.181 43.5682 140.004 43.4603 139.854 43.3202C139.704 43.1801 139.585 43.0109 139.503 42.823C139.422 42.6351 139.38 42.4324 139.38 42.2277C139.38 42.0229 139.422 41.8203 139.503 41.6324C139.585 41.4444 139.704 41.2752 139.854 41.1352C140.004 40.9951 140.181 40.8871 140.374 40.818C140.568 40.7488 140.773 40.7199 140.978 40.7331H197.828C198.033 40.7199 198.238 40.7488 198.432 40.818C198.625 40.8871 198.802 40.9951 198.952 41.1352C199.102 41.2752 199.221 41.4444 199.303 41.6324C199.384 41.8203 199.426 42.0229 199.426 42.2277C199.426 42.4324 199.384 42.6351 199.303 42.823C199.221 43.0109 199.102 43.1801 198.952 43.3202C198.802 43.4603 198.625 43.5682 198.432 43.6374C198.238 43.7065 198.033 43.7354 197.828 43.7223Z" fill="#B4B3B4"/>
<path d="M197.828 54.5279H140.978C140.773 54.5411 140.568 54.5122 140.374 54.443C140.181 54.3738 140.004 54.2659 139.854 54.1258C139.704 53.9857 139.585 53.8165 139.503 53.6286C139.422 53.4407 139.38 53.2381 139.38 53.0333C139.38 52.8285 139.422 52.6259 139.503 52.438C139.585 52.2501 139.704 52.0809 139.854 51.9408C140.004 51.8007 140.181 51.6928 140.374 51.6236C140.568 51.5545 140.773 51.5256 140.978 51.5387H197.828C198.033 51.5256 198.238 51.5545 198.432 51.6236C198.625 51.6928 198.802 51.8007 198.952 51.9408C199.102 52.0809 199.221 52.2501 199.303 52.438C199.384 52.6259 199.426 52.8285 199.426 53.0333C199.426 53.2381 199.384 53.4407 199.303 53.6286C199.221 53.8165 199.102 53.9857 198.952 54.1258C198.802 54.2659 198.625 54.3738 198.432 54.443C198.238 54.5122 198.033 54.5411 197.828 54.5279Z" fill="#B4B3B4"/>
<path d="M197.828 65.3333H140.978C140.773 65.3465 140.568 65.3176 140.374 65.2484C140.181 65.1793 140.004 65.0713 139.854 64.9313C139.704 64.7912 139.585 64.622 139.503 64.4341C139.422 64.2461 139.38 64.0435 139.38 63.8387C139.38 63.634 139.422 63.4314 139.503 63.2434C139.585 63.0555 139.704 62.8863 139.854 62.7462C140.004 62.6062 140.181 62.4982 140.374 62.4291C140.568 62.3599 140.773 62.331 140.978 62.3442H197.828C198.033 62.331 198.238 62.3599 198.432 62.4291C198.625 62.4982 198.802 62.6062 198.952 62.7462C199.102 62.8863 199.221 63.0555 199.303 63.2434C199.384 63.4314 199.426 63.634 199.426 63.8387C199.426 64.0435 199.384 64.2461 199.303 64.4341C199.221 64.622 199.102 64.7912 198.952 64.9313C198.802 65.0713 198.625 65.1793 198.432 65.2484C198.238 65.3176 198.033 65.3465 197.828 65.3333Z" fill="#B4B3B4"/>
<path d="M197.828 76.139H140.978C140.773 76.1522 140.568 76.1233 140.374 76.0541C140.181 75.985 140.004 75.877 139.854 75.7369C139.704 75.5969 139.585 75.4276 139.503 75.2397C139.422 75.0518 139.38 74.8492 139.38 74.6444C139.38 74.4396 139.422 74.237 139.503 74.0491C139.585 73.8612 139.704 73.692 139.854 73.5519C140.004 73.4118 140.181 73.3039 140.374 73.2347C140.568 73.1656 140.773 73.1367 140.978 73.1498H197.828C198.033 73.1367 198.238 73.1656 198.432 73.2347C198.625 73.3039 198.802 73.4118 198.952 73.5519C199.102 73.692 199.221 73.8612 199.303 74.0491C199.384 74.237 199.426 74.4396 199.426 74.6444C199.426 74.8492 199.384 75.0518 199.303 75.2397C199.221 75.4276 199.102 75.5969 198.952 75.7369C198.802 75.877 198.625 75.985 198.432 76.0541C198.238 76.1233 198.033 76.1522 197.828 76.139Z" fill="#B4B3B4"/>
</g>
<defs>
<clipPath id="clip0_186_2541">
<rect width="231" height="288" fill="white" transform="translate(0.5 0.5)"/>
</clipPath>
</defs>
</svg>
